<?xml version="1.0" standalone="no"?>
<!DOCTYPE svg PUBLIC "-//W3C//DTD SVG 20010904//EN"
 "http://www.w3.org/TR/2001/REC-SVG-20010904/DTD/svg10.dtd">
<svg version="1.0" xmlns="http://www.w3.org/2000/svg"
 width="700.000000pt" height="700.000000pt" viewBox="0 0 700.000000 700.000000"
 preserveAspectRatio="xMidYMid meet">
<metadata>
Created by potrace 1.11, written by Peter Selinger 2001-2013
</metadata>
<g transform="translate(0.000000,700.000000) scale(0.100000,-0.100000)"
fill="#000000" stroke="none">
<path d="M3367 6994 c-1 -1 -45 -4 -97 -8 -139 -9 -208 -16 -270 -26 -30 -5
-75 -12 -100 -15 -25 -3 -61 -10 -80 -15 -19 -5 -46 -11 -60 -13 -285 -51
-701 -212 -1016 -393 -160 -92 -403 -262 -495 -346 -14 -13 -50 -44 -80 -69
-73 -63 -252 -245 -336 -344 -143 -168 -290 -379 -389 -560 -49 -88 -154 -300
-154 -310 0 -2 -11 -28 -24 -57 -43 -96 -112 -298 -142 -413 -4 -16 -8 -34
-10 -40 -5 -16 -25 -98 -30 -120 -39 -194 -47 -242 -60 -350 -26 -234 -26
-641 1 -829 3 -17 7 -49 9 -71 10 -83 18 -131 26 -165 5 -19 12 -48 14 -65 53
-294 196 -678 371 -989 185 -330 396 -596 710 -891 188 -178 515 -400 794
-539 278 -140 690 -274 958 -311 21 -3 47 -7 58 -10 11 -2 43 -7 70 -10 28 -4
77 -10 110 -15 138 -18 523 -18 690 -1 748 79 1403 362 1971 852 60 51 313
308 370 374 232 273 458 654 590 993 78 201 161 503 189 687 3 22 10 67 15
100 19 122 25 246 25 500 -1 332 -28 549 -105 850 -39 153 -114 378 -143 431
-9 16 -33 63 -52 104 -53 109 -145 289 -166 324 -10 17 -26 44 -35 61 -61 107
-195 296 -317 445 -100 121 -363 380 -492 483 -244 195 -568 390 -820 492 -38
16 -73 31 -77 34 -4 3 -9 40 -13 81 -3 41 -8 95 -11 119 l-6 44 -86 -86 -87
-86 -40 15 c-44 15 -342 90 -390 98 -269 44 -415 57 -648 60 -76 1 -139 1
-140 0z"/>
</g>
</svg>
